# xmcd CD database file
#
# Track frame offsets:
#	150
#	17082
#	34235
#	58232
#	71747
#	93757
#	113465
#	132715
#	148442
#	161865
#	189850
#	206845
#
# Disc length: 3032 seconds
#
# Revision: 6
# Processed by: cddbd v1.5.2PL0 Copyright (c) Steve Scherf et al.
# Submitted via: CDex 1.51
#
DISCID=b60bd60c
DTITLE=Chuck Wilson - Karl Joseph - Chuck Wilson - Desert Bloom
DYEAR=1997
DGENRE=New Age
TTITLE0=Desert Bloom
TTITLE1=Ocean Wave
TTITLE2=Blue Odyssey
TTITLE3=The Jig
TTITLE4=Waiting for Rain
TTITLE5=Harmonica Sunrise
TTITLE6=Clear Running Stream
TTITLE7=Alpenglow
TTITLE8=Open Road
TTITLE9=Dreamscapes
TTITLE10=Tea at Midnight
TTITLE11=Fire Dance
EXTD=YEAR: 1997
EXTT0=
EXTT1=
EXTT2=
EXTT3=
EXTT4=
EXTT5=
EXTT6=
EXTT7=
EXTT8=
EXTT9=
EXTT10=
EXTT11=
PLAYORDER=
